<svg width="729" height="58" viewBox="0 0 729 58" fill="none" xmlns="http://www.w3.org/2000/svg">
<path d="M0 9C0 4.02944 4.02944 0 9 0H720C724.971 0 729 4.02944 729 9V31C729 35.9706 724.971 40 720 40H8.99999C4.02943 40 0 35.9706 0 31V9Z" fill="white"/>
<path d="M9 1H720V-1H9V1ZM728 9V31H730V9H728ZM720 39H8.99999V41H720V39ZM1 31V9H-1V31H1ZM8.99999 39C4.58172 39 1 35.4183 1 31H-1C-1 36.5228 3.47715 41 8.99999 41V39ZM728 31C728 35.4183 724.418 39 720 39V41C725.523 41 730 36.5228 730 31H728ZM720 1C724.418 1 728 4.58172 728 9H730C730 3.47715 725.523 -1 720 -1V1ZM9 -1C3.47715 -1 -1 3.47715 -1 9H1C1 4.58172 4.58172 1 9 1V-1Z" fill="#98A2B3"/>
</svg>
