<svg width="700" height="45" viewBox="0 0 700 45" fill="none" xmlns="http://www.w3.org/2000/svg">
<path d="M0 11C0 4.92487 4.92487 0 11 0H689C695.075 0 700 4.92487 700 11V34C700 40.0751 695.075 45 689 45H11C4.92487 45 0 40.0751 0 34V11Z" fill="white"/>
<path d="M679.5 19.5L672 27L664.5 19.5" stroke="#667085" stroke-width="1.5" stroke-linecap="round" stroke-linejoin="round"/>
<path d="M11 1H689V-1H11V1ZM699 11V34H701V11H699ZM689 44H11V46H689V44ZM1 34V11H-1V34H1ZM11 44C5.47715 44 1 39.5228 1 34H-1C-1 40.6274 4.37258 46 11 46V44ZM699 34C699 39.5228 694.523 44 689 44V46C695.627 46 701 40.6274 701 34H699ZM689 1C694.523 1 699 5.47715 699 11H701C701 4.37258 695.627 -1 689 -1V1ZM11 -1C4.37258 -1 -1 4.37258 -1 11H1C1 5.47715 5.47715 1 11 1V-1Z" fill="#98A2B3"/>
</svg>
